<?xml version="1.0" encoding="utf-8"?>
<!-- Generator: Adobe Illustrator 25.0.0, SVG Export Plug-In . SVG Version: 6.00 Build 0)  -->
<svg version="1.1" xmlns="http://www.w3.org/2000/svg" xmlns:xlink="http://www.w3.org/1999/xlink" x="0px" y="0px"
	 viewBox="0 0 1920 1080" style="enable-background:new 0 0 1920 1080;" xml:space="preserve">
<style type="text/css">
	.st0{fill:#EF2E00;}
	.st1{fill:#F1FF03;}
	.st2{fill:#0400F8;}
	.st3{fill:#32FF7F;}
	.st4{fill:#060009;stroke:#000000;stroke-miterlimit:10;}
</style>
<g id="all">
	<g>
		<g>
			<rect x="361.5" y="67.5" class="st0" width="1213" height="897"/>
			<path d="M1574,68v896H362V68H1574 M1575,67H361v898h1214V67L1575,67z"/>
		</g>
		<g>
			<g>
				<rect x="361.5" y="439.14" class="st1" width="774.07" height="525.36"/>
				<path d="M1135.07,439.64V964H362V439.64H1135.07 M1136.07,438.64H361V965h775.07V438.64L1136.07,438.64z"/>
			</g>
			<g>
				<rect x="361.5" y="67.5" class="st2" width="463.07" height="370.64"/>
				<path d="M824.07,68v369.64H362V68H824.07 M825.07,67H361v371.64h464.07V67L825.07,67z"/>
			</g>
			<g>
				<rect x="1136.57" y="264.14" class="st3" width="437.93" height="520.43"/>
				<path d="M1574,264.64v519.43h-436.93V264.64H1574 M1575,263.64h-438.93v521.43H1575V263.64L1575,263.64z"/>
			</g>
		</g>
	</g>
</g>
<g id="bl">
	<rect x="361" y="67" class="st4" width="585.79" height="498.21"/>
</g>
<g id="ye">
	<rect x="377.82" y="589.54" class="st4" width="1180.36" height="357.14"/>
</g>
<g id="red">
	<rect x="968" y="94" class="st4" width="576.71" height="471.21"/>
</g>
</svg>
