<svg xmlns="http://www.w3.org/2000/svg" viewBox="0 0 1214.5 898.5"><defs><style>.cls-1{fill:#ef2e00;}.cls-2{fill:#f1ff03;}.cls-3{fill:#0400f8;}.cls-4{fill:#32ff7f;}.cls-5{fill:#060009;stroke:#000;stroke-miterlimit:10;}</style></defs><g id="圖層_2" data-name="圖層 2"><rect class="cls-1" x="1" y="1" width="1213" height="897"/><path d="M1574,68V964H362V68H1574m1-1H361V965H1575V67Z" transform="translate(-360.5 -66.5)"/><rect class="cls-2" x="1" y="372.64" width="774.07" height="525.36"/><path d="M1135.07,439.64V964H362V439.64h773.07m1-1H361V965h775.07V438.64Z" transform="translate(-360.5 -66.5)"/><rect class="cls-3" x="1" y="1" width="463.07" height="370.64"/><path d="M824.07,68V437.64H362V68H824.07m1-1H361V438.64H825.07V67Z" transform="translate(-360.5 -66.5)"/><rect class="cls-4" x="776.07" y="197.64" width="437.93" height="520.43"/><path d="M1574,264.64V784.07H1137.07V264.64H1574m1-1H1136.07V785.07H1575V263.64Z" transform="translate(-360.5 -66.5)"/></g><g id="圖層_1" data-name="圖層 1"><rect class="cls-5" x="0.5" y="0.5" width="585.79" height="498.21"/></g><g id="圖層_3" data-name="圖層 3"><rect class="cls-5" x="17.32" y="523.04" width="1180.36" height="357.14"/></g><g id="圖層_4" data-name="圖層 4"><rect class="cls-5" x="607.5" y="27.5" width="576.71" height="471.21"/></g></svg>